<svg width="160" height="120" viewBox="0 0 160 120" fill="none" xmlns="http://www.w3.org/2000/svg">
<path fill-rule="evenodd" clip-rule="evenodd" d="M29 5C29 2.23858 31.2386 0 34 0H124C126.761 0 129 2.23858 129 5V30C129 32.7614 126.739 34.9478 124.032 35.4936C112.605 37.7976 104 47.8939 104 60C104 72.1061 112.605 82.2024 124.032 84.5064C126.739 85.0522 129 87.2386 129 90V115C129 117.761 126.761 120 124 120H34C31.2386 120 29 117.761 29 115V90C29 87.2386 31.2611 85.0522 33.9681 84.5064C45.3952 82.2024 54 72.1061 54 60C54 47.8939 45.3952 37.7976 33.9681 35.4936C31.2611 34.9478 29 32.7614 29 30V5Z" fill="#05060F"/>
<path d="M128.161 78H143.697C151.864 78 156.214 73.7386 156.214 67.9503C156.214 62.5703 152.362 59.321 148.224 59.1257V58.7706C152.006 57.9183 154.794 55.2372 154.794 50.9581C154.794 45.5071 150.746 41.6364 142.72 41.6364H128.161V78ZM135.849 71.7145V62.0554H142.294C145.987 62.0554 148.278 64.1861 148.278 67.1868C148.278 69.9212 146.413 71.7145 142.116 71.7145H135.849ZM135.849 56.853V47.8509H141.69C145.099 47.8509 147.035 49.6087 147.035 52.2365C147.035 55.1129 144.691 56.853 141.548 56.853H135.849Z" fill="#05060F"/>
<path d="M9.42827 79L12.1271 70.7081H25.2486L27.9474 79H36.1861L23.6506 42.6364H13.7429L1.18963 79H9.42827ZM14.0803 64.7067L18.5547 50.946H18.8388L23.3132 64.7067H14.0803Z" fill="#05060F"/>
</svg>
